<svg width="1024" height="753" viewBox="0 0 1024 753" fill="none" xmlns="http://www.w3.org/2000/svg">
<g clip-path="url(#clip0_122_130)">
<rect width="1024" height="753" fill="#121214"/>
<g opacity="0.2" filter="url(#filter0_f_122_130)">
<ellipse cx="512.5" cy="26" rx="670.5" ry="350" fill="#35875D"/>
</g>
<path d="M33.0349 262C34.5302 262 35.6622 262.63 36.4308 263.891C37.2134 265.138 37.6047 266.953 37.6047 269.336C37.6047 271.719 37.2134 273.541 36.4308 274.802C35.6622 276.063 34.5302 276.693 33.0349 276.693C31.5536 276.693 30.4216 276.063 29.639 274.802C28.8564 273.541 28.4651 271.719 28.4651 269.336C28.4651 266.967 28.8564 265.152 29.639 263.891C30.4216 262.63 31.5536 262 33.0349 262ZM29.9534 269.336C29.9534 271.026 30.1072 272.35 30.4146 273.306L35.0683 264.099C34.5791 263.448 33.9013 263.122 33.0349 263.122C32.0706 263.122 31.316 263.635 30.771 264.66C30.2259 265.672 29.9534 267.23 29.9534 269.336ZM33.0349 275.55C34.0131 275.55 34.7748 275.044 35.3198 274.033C35.8648 273.008 36.1373 271.442 36.1373 269.336C36.1373 267.549 35.9627 266.163 35.6133 265.18L30.9596 274.469C31.4627 275.19 32.1545 275.55 33.0349 275.55Z" fill="url(#paint0_linear_122_130)" fill-opacity="0.6"/>
<path d="M34.2926 299.135H37.3741V300.236H29.3874V299.135H32.9511V287.455L29.5551 289.471L28.9682 288.536L33.1607 285.959H34.2926V299.135Z" fill="url(#paint1_linear_122_130)" fill-opacity="0.6"/>
<path d="M33.0349 309.502C34.5302 309.502 35.6622 310.133 36.4308 311.393C37.2134 312.64 37.6047 314.455 37.6047 316.838C37.6047 319.221 37.2134 321.043 36.4308 322.304C35.6622 323.565 34.5302 324.195 33.0349 324.195C31.5536 324.195 30.4216 323.565 29.639 322.304C28.8564 321.043 28.4651 319.221 28.4651 316.838C28.4651 314.469 28.8564 312.654 29.639 311.393C30.4216 310.133 31.5536 309.502 33.0349 309.502ZM29.9534 316.838C29.9534 318.529 30.1072 319.852 30.4146 320.808L35.0683 311.601C34.5791 310.95 33.9013 310.624 33.0349 310.624C32.0706 310.624 31.316 311.137 30.771 312.162C30.2259 313.174 29.9534 314.732 29.9534 316.838ZM33.0349 323.052C34.0131 323.052 34.7748 322.546 35.3198 321.535C35.8648 320.51 36.1373 318.944 36.1373 316.838C36.1373 315.051 35.9627 313.665 35.6133 312.682L30.9596 321.971C31.4627 322.692 32.1545 323.052 33.0349 323.052Z" fill="url(#paint2_linear_122_130)" fill-opacity="0.6"/>
<path d="M34.2926 346.637H37.3741V347.738H29.3874V346.637H32.9511V334.957L29.5551 336.973L28.9682 336.038L33.1607 333.461H34.2926V346.637Z" fill="url(#paint3_linear_122_130)" fill-opacity="0.6"/>
<path d="M34.2926 370.388H37.3741V371.489H29.3874V370.388H32.9511V358.708L29.5551 360.724L28.9682 359.789L33.1607 357.212H34.2926V370.388Z" fill="url(#paint4_linear_122_130)" fill-opacity="0.6"/>
<path d="M33.0349 380.755C34.5302 380.755 35.6622 381.386 36.4308 382.646C37.2134 383.893 37.6047 385.708 37.6047 388.091C37.6047 390.474 37.2134 392.296 36.4308 393.557C35.6622 394.818 34.5302 395.448 33.0349 395.448C31.5536 395.448 30.4216 394.818 29.639 393.557C28.8564 392.296 28.4651 390.474 28.4651 388.091C28.4651 385.722 28.8564 383.907 29.639 382.646C30.4216 381.386 31.5536 380.755 33.0349 380.755ZM29.9534 388.091C29.9534 389.782 30.1072 391.105 30.4146 392.061L35.0683 382.854C34.5791 382.203 33.9013 381.878 33.0349 381.878C32.0706 381.878 31.316 382.39 30.771 383.415C30.2259 384.427 29.9534 385.985 29.9534 388.091ZM33.0349 394.305C34.0131 394.305 34.7748 393.8 35.3198 392.788C35.8648 391.763 36.1373 390.197 36.1373 388.091C36.1373 386.304 35.9627 384.919 35.6133 383.935L30.9596 393.225C31.4627 393.945 32.1545 394.305 33.0349 394.305Z" fill="url(#paint5_linear_122_130)" fill-opacity="0.6"/>
<path d="M34.2926 417.89H37.3741V418.992H29.3874V417.89H32.9511V406.21L29.5551 408.226L28.9682 407.291L33.1607 404.714H34.2926V417.89Z" fill="url(#paint6_linear_122_130)" fill-opacity="0.6"/>
<path d="M33.0349 428.257C34.5302 428.257 35.6622 428.888 36.4308 430.149C37.2134 431.396 37.6047 433.211 37.6047 435.594C37.6047 437.977 37.2134 439.798 36.4308 441.059C35.6622 442.32 34.5302 442.95 33.0349 442.95C31.5536 442.95 30.4216 442.32 29.639 441.059C28.8564 439.798 28.4651 437.977 28.4651 435.594C28.4651 433.224 28.8564 431.409 29.639 430.149C30.4216 428.888 31.5536 428.257 33.0349 428.257ZM29.9534 435.594C29.9534 437.284 30.1072 438.607 30.4146 439.563L35.0683 430.356C34.5791 429.705 33.9013 429.38 33.0349 429.38C32.0706 429.38 31.316 429.892 30.771 430.918C30.2259 431.929 29.9534 433.488 29.9534 435.594ZM33.0349 441.807C34.0131 441.807 34.7748 441.302 35.3198 440.29C35.8648 439.265 36.1373 437.699 36.1373 435.594C36.1373 433.806 35.9627 432.421 35.6133 431.437L30.9596 440.727C31.4627 441.447 32.1545 441.807 33.0349 441.807Z" fill="url(#paint7_linear_122_130)" fill-opacity="0.6"/>
<path d="M33.0349 452.008C34.5302 452.008 35.6622 452.639 36.4308 453.9C37.2134 455.147 37.6047 456.962 37.6047 459.345C37.6047 461.728 37.2134 463.549 36.4308 464.81C35.6622 466.071 34.5302 466.701 33.0349 466.701C31.5536 466.701 30.4216 466.071 29.639 464.81C28.8564 463.549 28.4651 461.728 28.4651 459.345C28.4651 456.975 28.8564 455.16 29.639 453.9C30.4216 452.639 31.5536 452.008 33.0349 452.008ZM29.9534 459.345C29.9534 461.035 30.1072 462.358 30.4146 463.314L35.0683 454.107C34.5791 453.456 33.9013 453.131 33.0349 453.131C32.0706 453.131 31.316 453.643 30.771 454.669C30.2259 455.68 29.9534 457.239 29.9534 459.345ZM33.0349 465.558C34.0131 465.558 34.7748 465.053 35.3198 464.041C35.8648 463.016 36.1373 461.451 36.1373 459.345C36.1373 457.557 35.9627 456.172 35.6133 455.188L30.9596 464.478C31.4627 465.198 32.1545 465.558 33.0349 465.558Z" fill="url(#paint8_linear_122_130)" fill-opacity="0.6"/>
<path d="M34.2926 489.143H37.3741V490.245H29.3874V489.143H32.9511V477.464L29.5551 479.48L28.9682 478.544L33.1607 475.967H34.2926V489.143Z" fill="url(#paint9_linear_122_130)" fill-opacity="0.6"/>
<path d="M33.0349 499.511C34.5302 499.511 35.6622 500.141 36.4308 501.402C37.2134 502.649 37.6047 504.464 37.6047 506.847C37.6047 509.23 37.2134 511.052 36.4308 512.312C35.6622 513.573 34.5302 514.204 33.0349 514.204C31.5536 514.204 30.4216 513.573 29.639 512.312C28.8564 511.052 28.4651 509.23 28.4651 506.847C28.4651 504.478 28.8564 502.663 29.639 501.402C30.4216 500.141 31.5536 499.511 33.0349 499.511ZM29.9534 506.847C29.9534 508.537 30.1072 509.86 30.4146 510.816L35.0683 501.61C34.5791 500.958 33.9013 500.633 33.0349 500.633C32.0706 500.633 31.316 501.145 30.771 502.171C30.2259 503.182 29.9534 504.741 29.9534 506.847ZM33.0349 513.061C34.0131 513.061 34.7748 512.555 35.3198 511.543C35.8648 510.518 36.1373 508.953 36.1373 506.847C36.1373 505.059 35.9627 503.674 35.6133 502.69L30.9596 511.98C31.4627 512.7 32.1545 513.061 33.0349 513.061Z" fill="url(#paint10_linear_122_130)" fill-opacity="0.6"/>
<path d="M34.2926 536.645H37.3741V537.747H29.3874V536.645H32.9511V524.966L29.5551 526.982L28.9682 526.046L33.1607 523.469H34.2926V536.645Z" fill="url(#paint11_linear_122_130)" fill-opacity="0.6"/>
<path d="M34.2926 560.396H37.3741V561.498H29.3874V560.396H32.9511V548.717L29.5551 550.733L28.9682 549.798L33.1607 547.221H34.2926V560.396Z" fill="url(#paint12_linear_122_130)" fill-opacity="0.6"/>
<path d="M71.9651 309.502C73.4604 309.502 74.5924 310.133 75.361 311.393C76.1436 312.64 76.5349 314.455 76.5349 316.838C76.5349 319.221 76.1436 321.043 75.361 322.304C74.5924 323.565 73.4604 324.195 71.9651 324.195C70.4838 324.195 69.3518 323.565 68.5692 322.304C67.7866 321.043 67.3953 319.221 67.3953 316.838C67.3953 314.469 67.7866 312.654 68.5692 311.393C69.3518 310.133 70.4838 309.502 71.9651 309.502ZM68.8836 316.838C68.8836 318.529 69.0374 319.852 69.3448 320.808L73.9985 311.601C73.5093 310.95 72.8315 310.624 71.9651 310.624C71.0008 310.624 70.2462 311.137 69.7012 312.162C69.1561 313.174 68.8836 314.732 68.8836 316.838ZM71.9651 323.052C72.9433 323.052 73.705 322.546 74.25 321.535C74.795 320.51 75.0675 318.944 75.0675 316.838C75.0675 315.051 74.8928 313.665 74.5435 312.682L69.8898 321.971C70.3929 322.692 71.0847 323.052 71.9651 323.052Z" fill="url(#paint13_linear_122_130)" fill-opacity="0.6"/>
<path d="M73.2228 346.637H76.3043V347.738H68.3176V346.637H71.8812V334.957L68.4853 336.973L67.8984 336.038L72.0909 333.461H73.2228V346.637Z" fill="url(#paint14_linear_122_130)" fill-opacity="0.6"/>
<path d="M71.9651 357.004C73.4604 357.004 74.5924 357.635 75.361 358.895C76.1436 360.142 76.5349 361.957 76.5349 364.34C76.5349 366.723 76.1436 368.545 75.361 369.806C74.5924 371.067 73.4604 371.697 71.9651 371.697C70.4838 371.697 69.3518 371.067 68.5692 369.806C67.7866 368.545 67.3953 366.723 67.3953 364.34C67.3953 361.971 67.7866 360.156 68.5692 358.895C69.3518 357.635 70.4838 357.004 71.9651 357.004ZM68.8836 364.34C68.8836 366.031 69.0374 367.354 69.3448 368.31L73.9985 359.103C73.5093 358.452 72.8315 358.126 71.9651 358.126C71.0008 358.126 70.2462 358.639 69.7012 359.664C69.1561 360.676 68.8836 362.234 68.8836 364.34ZM71.9651 370.554C72.9433 370.554 73.705 370.049 74.25 369.037C74.795 368.012 75.0675 366.446 75.0675 364.34C75.0675 362.553 74.8928 361.168 74.5435 360.184L69.8898 369.474C70.3929 370.194 71.0847 370.554 71.9651 370.554Z" fill="url(#paint15_linear_122_130)" fill-opacity="0.6"/>
<path d="M71.9651 380.755C73.4604 380.755 74.5924 381.386 75.361 382.646C76.1436 383.893 76.5349 385.708 76.5349 388.091C76.5349 390.474 76.1436 392.296 75.361 393.557C74.5924 394.818 73.4604 395.448 71.9651 395.448C70.4838 395.448 69.3518 394.818 68.5692 393.557C67.7866 392.296 67.3953 390.474 67.3953 388.091C67.3953 385.722 67.7866 383.907 68.5692 382.646C69.3518 381.386 70.4838 380.755 71.9651 380.755ZM68.8836 388.091C68.8836 389.782 69.0374 391.105 69.3448 392.061L73.9985 382.854C73.5093 382.203 72.8315 381.878 71.9651 381.878C71.0008 381.878 70.2462 382.39 69.7012 383.415C69.1561 384.427 68.8836 385.985 68.8836 388.091ZM71.9651 394.305C72.9433 394.305 73.705 393.8 74.25 392.788C74.795 391.763 75.0675 390.197 75.0675 388.091C75.0675 386.304 74.8928 384.919 74.5435 383.935L69.8898 393.225C70.3929 393.945 71.0847 394.305 71.9651 394.305Z" fill="url(#paint16_linear_122_130)" fill-opacity="0.6"/>
<path d="M73.2228 417.89H76.3043V418.992H68.3176V417.89H71.8812V406.21L68.4853 408.226L67.8984 407.291L72.0909 404.714H73.2228V417.89Z" fill="url(#paint17_linear_122_130)" fill-opacity="0.6"/>
<path d="M71.9651 428.257C73.4604 428.257 74.5924 428.888 75.361 430.149C76.1436 431.396 76.5349 433.211 76.5349 435.594C76.5349 437.977 76.1436 439.798 75.361 441.059C74.5924 442.32 73.4604 442.95 71.9651 442.95C70.4838 442.95 69.3518 442.32 68.5692 441.059C67.7866 439.798 67.3953 437.977 67.3953 435.594C67.3953 433.224 67.7866 431.409 68.5692 430.149C69.3518 428.888 70.4838 428.257 71.9651 428.257ZM68.8836 435.594C68.8836 437.284 69.0374 438.607 69.3448 439.563L73.9985 430.356C73.5093 429.705 72.8315 429.38 71.9651 429.38C71.0008 429.38 70.2462 429.892 69.7012 430.918C69.1561 431.929 68.8836 433.488 68.8836 435.594ZM71.9651 441.807C72.9433 441.807 73.705 441.302 74.25 440.29C74.795 439.265 75.0675 437.699 75.0675 435.594C75.0675 433.806 74.8928 432.421 74.5435 431.437L69.8898 440.727C70.3929 441.447 71.0847 441.807 71.9651 441.807Z" fill="url(#paint18_linear_122_130)" fill-opacity="0.6"/>
<path d="M73.2228 465.392H76.3043V466.494H68.3176V465.392H71.8812V453.713L68.4853 455.728L67.8984 454.793L72.0909 452.216H73.2228V465.392Z" fill="url(#paint19_linear_122_130)" fill-opacity="0.6"/>
<path d="M71.9651 475.76C73.4604 475.76 74.5924 476.39 75.361 477.651C76.1436 478.898 76.5349 480.713 76.5349 483.096C76.5349 485.479 76.1436 487.301 75.361 488.561C74.5924 489.822 73.4604 490.453 71.9651 490.453C70.4838 490.453 69.3518 489.822 68.5692 488.561C67.7866 487.301 67.3953 485.479 67.3953 483.096C67.3953 480.726 67.7866 478.911 68.5692 477.651C69.3518 476.39 70.4838 475.76 71.9651 475.76ZM68.8836 483.096C68.8836 484.786 69.0374 486.109 69.3448 487.065L73.9985 477.859C73.5093 477.207 72.8315 476.882 71.9651 476.882C71.0008 476.882 70.2462 477.394 69.7012 478.42C69.1561 479.431 68.8836 480.99 68.8836 483.096ZM71.9651 489.31C72.9433 489.31 73.705 488.804 74.25 487.792C74.795 486.767 75.0675 485.202 75.0675 483.096C75.0675 481.308 74.8928 479.923 74.5435 478.939L69.8898 488.229C70.3929 488.949 71.0847 489.31 71.9651 489.31Z" fill="url(#paint20_linear_122_130)" fill-opacity="0.6"/>
<path d="M71.9651 499.511C73.4604 499.511 74.5924 500.141 75.361 501.402C76.1436 502.649 76.5349 504.464 76.5349 506.847C76.5349 509.23 76.1436 511.052 75.361 512.312C74.5924 513.573 73.4604 514.204 71.9651 514.204C70.4838 514.204 69.3518 513.573 68.5692 512.312C67.7866 511.052 67.3953 509.23 67.3953 506.847C67.3953 504.478 67.7866 502.663 68.5692 501.402C69.3518 500.141 70.4838 499.511 71.9651 499.511ZM68.8836 506.847C68.8836 508.537 69.0374 509.86 69.3448 510.816L73.9985 501.61C73.5093 500.958 72.8315 500.633 71.9651 500.633C71.0008 500.633 70.2462 501.145 69.7012 502.171C69.1561 503.182 68.8836 504.741 68.8836 506.847ZM71.9651 513.061C72.9433 513.061 73.705 512.555 74.25 511.543C74.795 510.518 75.0675 508.953 75.0675 506.847C75.0675 505.059 74.8928 503.674 74.5435 502.69L69.8898 511.98C70.3929 512.7 71.0847 513.061 71.9651 513.061Z" fill="url(#paint21_linear_122_130)" fill-opacity="0.6"/>
<path d="M73.2228 536.645H76.3043V537.747H68.3176V536.645H71.8812V524.966L68.4853 526.982L67.8984 526.046L72.0909 523.469H73.2228V536.645Z" fill="url(#paint22_linear_122_130)" fill-opacity="0.6"/>
<path d="M71.9651 547.013C73.4604 547.013 74.5924 547.643 75.361 548.904C76.1436 550.151 76.5349 551.966 76.5349 554.349C76.5349 556.732 76.1436 558.554 75.361 559.815C74.5924 561.075 73.4604 561.706 71.9651 561.706C70.4838 561.706 69.3518 561.075 68.5692 559.815C67.7866 558.554 67.3953 556.732 67.3953 554.349C67.3953 551.98 67.7866 550.165 68.5692 548.904C69.3518 547.643 70.4838 547.013 71.9651 547.013ZM68.8836 554.349C68.8836 556.039 69.0374 557.362 69.3448 558.318L73.9985 549.112C73.5093 548.461 72.8315 548.135 71.9651 548.135C71.0008 548.135 70.2462 548.648 69.7012 549.673C69.1561 550.684 68.8836 552.243 68.8836 554.349ZM71.9651 560.563C72.9433 560.563 73.705 560.057 74.25 559.046C74.795 558.02 75.0675 556.455 75.0675 554.349C75.0675 552.562 74.8928 551.176 74.5435 550.192L69.8898 559.482C70.3929 560.202 71.0847 560.563 71.9651 560.563Z" fill="url(#paint23_linear_122_130)" fill-opacity="0.6"/>
<path d="M73.2228 584.148H76.3043V585.249H68.3176V584.148H71.8812V572.468L68.4853 574.484L67.8984 573.549L72.0909 570.972H73.2228V584.148Z" fill="url(#paint24_linear_122_130)" fill-opacity="0.6"/>
<path d="M73.2228 607.899H76.3043V609H68.3176V607.899H71.8812V596.219L68.4853 598.235L67.8984 597.3L72.0909 594.723H73.2228V607.899Z" fill="url(#paint25_linear_122_130)" fill-opacity="0.6"/>
<path d="M13.5698 333.253C15.0651 333.253 16.1971 333.884 16.9657 335.144C17.7483 336.391 18.1396 338.206 18.1396 340.589C18.1396 342.972 17.7483 344.794 16.9657 346.055C16.1971 347.316 15.0651 347.946 13.5698 347.946C12.0885 347.946 10.9565 347.316 10.1739 346.055C9.3913 344.794 9 342.972 9 340.589C9 338.22 9.3913 336.405 10.1739 335.144C10.9565 333.884 12.0885 333.253 13.5698 333.253ZM10.4883 340.589C10.4883 342.28 10.6421 343.603 10.9495 344.559L15.6032 335.352C15.114 334.701 14.4363 334.375 13.5698 334.375C12.6055 334.375 11.8509 334.888 11.3059 335.913C10.7608 336.925 10.4883 338.483 10.4883 340.589ZM13.5698 346.803C14.5481 346.803 15.3097 346.297 15.8547 345.286C16.3997 344.261 16.6722 342.695 16.6722 340.589C16.6722 338.802 16.4976 337.417 16.1482 336.433L11.4945 345.722C11.9976 346.443 12.6894 346.803 13.5698 346.803Z" fill="url(#paint26_linear_122_130)" fill-opacity="0.6"/>
<path d="M13.5698 357.004C15.0651 357.004 16.1971 357.635 16.9657 358.895C17.7483 360.142 18.1396 361.957 18.1396 364.34C18.1396 366.723 17.7483 368.545 16.9657 369.806C16.1971 371.067 15.0651 371.697 13.5698 371.697C12.0885 371.697 10.9565 371.067 10.1739 369.806C9.3913 368.545 9 366.723 9 364.34C9 361.971 9.3913 360.156 10.1739 358.895C10.9565 357.635 12.0885 357.004 13.5698 357.004ZM10.4883 364.34C10.4883 366.031 10.6421 367.354 10.9495 368.31L15.6032 359.103C15.114 358.452 14.4363 358.126 13.5698 358.126C12.6055 358.126 11.8509 358.639 11.3059 359.664C10.7608 360.676 10.4883 362.234 10.4883 364.34ZM13.5698 370.554C14.5481 370.554 15.3097 370.049 15.8547 369.037C16.3997 368.012 16.6722 366.446 16.6722 364.34C16.6722 362.553 16.4976 361.168 16.1482 360.184L11.4945 369.474C11.9976 370.194 12.6894 370.554 13.5698 370.554Z" fill="url(#paint27_linear_122_130)" fill-opacity="0.6"/>
<path d="M14.8276 394.139H17.909V395.24H9.92235V394.139H13.486V382.459L10.09 384.475L9.5031 383.54L13.6956 380.963H14.8276V394.139Z" fill="url(#paint28_linear_122_130)" fill-opacity="0.6"/>
<path d="M13.5698 404.506C15.0651 404.506 16.1971 405.137 16.9657 406.398C17.7483 407.644 18.1396 409.459 18.1396 411.842C18.1396 414.225 17.7483 416.047 16.9657 417.308C16.1971 418.569 15.0651 419.199 13.5698 419.199C12.0885 419.199 10.9565 418.569 10.1739 417.308C9.3913 416.047 9 414.225 9 411.842C9 409.473 9.3913 407.658 10.1739 406.398C10.9565 405.137 12.0885 404.506 13.5698 404.506ZM10.4883 411.842C10.4883 413.533 10.6421 414.856 10.9495 415.812L15.6032 406.605C15.114 405.954 14.4363 405.629 13.5698 405.629C12.6055 405.629 11.8509 406.141 11.3059 407.166C10.7608 408.178 10.4883 409.737 10.4883 411.842ZM13.5698 418.056C14.5481 418.056 15.3097 417.551 15.8547 416.539C16.3997 415.514 16.6722 413.948 16.6722 411.842C16.6722 410.055 16.4976 408.67 16.1482 407.686L11.4945 416.976C11.9976 417.696 12.6894 418.056 13.5698 418.056Z" fill="url(#paint29_linear_122_130)" fill-opacity="0.6"/>
<path d="M14.8276 441.641H17.909V442.743H9.92235V441.641H13.486V429.962L10.09 431.977L9.5031 431.042L13.6956 428.465H14.8276V441.641Z" fill="url(#paint30_linear_122_130)" fill-opacity="0.6"/>
<path d="M14.8276 465.392H17.909V466.494H9.92235V465.392H13.486V453.713L10.09 455.728L9.5031 454.793L13.6956 452.216H14.8276V465.392Z" fill="url(#paint31_linear_122_130)" fill-opacity="0.6"/>
<path d="M53.7577 299.135H56.8392V300.236H48.8525V299.135H52.4162V287.455L49.0202 289.471L48.4333 288.536L52.6258 285.959H53.7577V299.135Z" fill="url(#paint32_linear_122_130)" fill-opacity="0.6"/>
<path d="M52.5 309.502C53.9953 309.502 55.1273 310.133 55.8959 311.393C56.6785 312.64 57.0698 314.455 57.0698 316.838C57.0698 319.221 56.6785 321.043 55.8959 322.304C55.1273 323.565 53.9953 324.195 52.5 324.195C51.0187 324.195 49.8867 323.565 49.1041 322.304C48.3215 321.043 47.9302 319.221 47.9302 316.838C47.9302 314.469 48.3215 312.654 49.1041 311.393C49.8867 310.133 51.0187 309.502 52.5 309.502ZM49.4185 316.838C49.4185 318.529 49.5723 319.852 49.8797 320.808L54.5334 311.601C54.0442 310.95 53.3664 310.624 52.5 310.624C51.5357 310.624 50.7811 311.137 50.2361 312.162C49.691 313.174 49.4185 314.732 49.4185 316.838ZM52.5 323.052C53.4782 323.052 54.2399 322.546 54.7849 321.535C55.3299 320.51 55.6024 318.944 55.6024 316.838C55.6024 315.051 55.4277 313.665 55.0784 312.682L50.4247 321.971C50.9278 322.692 51.6196 323.052 52.5 323.052Z" fill="url(#paint33_linear_122_130)" fill-opacity="0.6"/>
<path d="M53.7577 346.637H56.8392V347.738H48.8525V346.637H52.4162V334.957L49.0202 336.973L48.4333 336.038L52.6258 333.461H53.7577V346.637Z" fill="url(#paint34_linear_122_130)" fill-opacity="0.6"/>
<path d="M53.7577 370.388H56.8392V371.489H48.8525V370.388H52.4162V358.708L49.0202 360.724L48.4333 359.789L52.6258 357.212H53.7577V370.388Z" fill="url(#paint35_linear_122_130)" fill-opacity="0.6"/>
<path d="M52.5 380.755C53.9953 380.755 55.1273 381.386 55.8959 382.646C56.6785 383.893 57.0698 385.708 57.0698 388.091C57.0698 390.474 56.6785 392.296 55.8959 393.557C55.1273 394.818 53.9953 395.448 52.5 395.448C51.0187 395.448 49.8867 394.818 49.1041 393.557C48.3215 392.296 47.9302 390.474 47.9302 388.091C47.9302 385.722 48.3215 383.907 49.1041 382.646C49.8867 381.386 51.0187 380.755 52.5 380.755ZM49.4185 388.091C49.4185 389.782 49.5723 391.105 49.8797 392.061L54.5334 382.854C54.0442 382.203 53.3664 381.878 52.5 381.878C51.5357 381.878 50.7811 382.39 50.2361 383.415C49.691 384.427 49.4185 385.985 49.4185 388.091ZM52.5 394.305C53.4782 394.305 54.2399 393.8 54.7849 392.788C55.3299 391.763 55.6024 390.197 55.6024 388.091C55.6024 386.304 55.4277 384.919 55.0784 383.935L50.4247 393.225C50.9278 393.945 51.6196 394.305 52.5 394.305Z" fill="url(#paint36_linear_122_130)" fill-opacity="0.6"/>
<path d="M53.7577 417.89H56.8392V418.992H48.8525V417.89H52.4162V406.21L49.0202 408.226L48.4333 407.291L52.6258 404.714H53.7577V417.89Z" fill="url(#paint37_linear_122_130)" fill-opacity="0.6"/>
<path d="M53.7577 441.641H56.8392V442.743H48.8525V441.641H52.4162V429.962L49.0202 431.977L48.4333 431.042L52.6258 428.465H53.7577V441.641Z" fill="url(#paint38_linear_122_130)" fill-opacity="0.6"/>
<path d="M52.5 452.008C53.9953 452.008 55.1273 452.639 55.8959 453.9C56.6785 455.147 57.0698 456.962 57.0698 459.345C57.0698 461.728 56.6785 463.549 55.8959 464.81C55.1273 466.071 53.9953 466.701 52.5 466.701C51.0187 466.701 49.8867 466.071 49.1041 464.81C48.3215 463.549 47.9302 461.728 47.9302 459.345C47.9302 456.975 48.3215 455.16 49.1041 453.9C49.8867 452.639 51.0187 452.008 52.5 452.008ZM49.4185 459.345C49.4185 461.035 49.5723 462.358 49.8797 463.314L54.5334 454.107C54.0442 453.456 53.3664 453.131 52.5 453.131C51.5357 453.131 50.7811 453.643 50.2361 454.669C49.691 455.68 49.4185 457.239 49.4185 459.345ZM52.5 465.558C53.4782 465.558 54.2399 465.053 54.7849 464.041C55.3299 463.016 55.6024 461.451 55.6024 459.345C55.6024 457.557 55.4277 456.172 55.0784 455.188L50.4247 464.478C50.9278 465.198 51.6196 465.558 52.5 465.558Z" fill="url(#paint39_linear_122_130)" fill-opacity="0.6"/>
<path d="M53.7577 489.143H56.8392V490.245H48.8525V489.143H52.4162V477.464L49.0202 479.48L48.4333 478.544L52.6258 475.967H53.7577V489.143Z" fill="url(#paint40_linear_122_130)" fill-opacity="0.6"/>
<path d="M52.5 499.511C53.9953 499.511 55.1273 500.141 55.8959 501.402C56.6785 502.649 57.0698 504.464 57.0698 506.847C57.0698 509.23 56.6785 511.052 55.8959 512.312C55.1273 513.573 53.9953 514.204 52.5 514.204C51.0187 514.204 49.8867 513.573 49.1041 512.312C48.3215 511.052 47.9302 509.23 47.9302 506.847C47.9302 504.478 48.3215 502.663 49.1041 501.402C49.8867 500.141 51.0187 499.511 52.5 499.511ZM49.4185 506.847C49.4185 508.537 49.5723 509.86 49.8797 510.816L54.5334 501.61C54.0442 500.958 53.3664 500.633 52.5 500.633C51.5357 500.633 50.7811 501.145 50.2361 502.171C49.691 503.182 49.4185 504.741 49.4185 506.847ZM52.5 513.061C53.4782 513.061 54.2399 512.555 54.7849 511.543C55.3299 510.518 55.6024 508.953 55.6024 506.847C55.6024 505.059 55.4277 503.674 55.0784 502.69L50.4247 511.98C50.9278 512.7 51.6196 513.061 52.5 513.061Z" fill="url(#paint41_linear_122_130)" fill-opacity="0.6"/>
<path d="M91.4302 285.751C92.9255 285.751 94.0575 286.381 94.8261 287.642C95.6087 288.889 96 290.704 96 293.087C96 295.47 95.6087 297.292 94.8261 298.553C94.0575 299.814 92.9255 300.444 91.4302 300.444C89.9489 300.444 88.8169 299.814 88.0343 298.553C87.2517 297.292 86.8604 295.47 86.8604 293.087C86.8604 290.718 87.2517 288.903 88.0343 287.642C88.8169 286.381 89.9489 285.751 91.4302 285.751ZM88.3487 293.087C88.3487 294.777 88.5024 296.101 88.8099 297.057L93.4636 287.85C92.9744 287.199 92.2966 286.873 91.4302 286.873C90.4659 286.873 89.7113 287.386 89.1663 288.411C88.6212 289.423 88.3487 290.981 88.3487 293.087ZM91.4302 299.301C92.4084 299.301 93.1701 298.795 93.7151 297.784C94.2601 296.759 94.5326 295.193 94.5326 293.087C94.5326 291.3 94.3579 289.914 94.0086 288.931L89.3549 298.22C89.858 298.941 90.5498 299.301 91.4302 299.301Z" fill="url(#paint42_linear_122_130)" fill-opacity="0.6"/>
<path d="M92.6879 322.886H95.7694V323.987H87.7827V322.886H91.3463V311.206L87.9504 313.222L87.3635 312.287L91.556 309.71H92.6879V322.886Z" fill="url(#paint43_linear_122_130)" fill-opacity="0.6"/>
<path d="M92.6879 346.637H95.7694V347.738H87.7827V346.637H91.3463V334.957L87.9504 336.973L87.3635 336.038L91.556 333.461H92.6879V346.637Z" fill="url(#paint44_linear_122_130)" fill-opacity="0.6"/>
<path d="M91.4302 357.004C92.9255 357.004 94.0575 357.635 94.8261 358.895C95.6087 360.142 96 361.957 96 364.34C96 366.723 95.6087 368.545 94.8261 369.806C94.0575 371.067 92.9255 371.697 91.4302 371.697C89.9489 371.697 88.8169 371.067 88.0343 369.806C87.2517 368.545 86.8604 366.723 86.8604 364.34C86.8604 361.971 87.2517 360.156 88.0343 358.895C88.8169 357.635 89.9489 357.004 91.4302 357.004ZM88.3487 364.34C88.3487 366.031 88.5024 367.354 88.8099 368.31L93.4636 359.103C92.9744 358.452 92.2966 358.126 91.4302 358.126C90.4659 358.126 89.7113 358.639 89.1663 359.664C88.6212 360.676 88.3487 362.234 88.3487 364.34ZM91.4302 370.554C92.4084 370.554 93.1701 370.049 93.7151 369.037C94.2601 368.012 94.5326 366.446 94.5326 364.34C94.5326 362.553 94.3579 361.168 94.0086 360.184L89.3549 369.474C89.858 370.194 90.5498 370.554 91.4302 370.554Z" fill="url(#paint45_linear_122_130)" fill-opacity="0.6"/>
<path d="M91.4302 380.755C92.9255 380.755 94.0575 381.386 94.8261 382.646C95.6087 383.893 96 385.708 96 388.091C96 390.474 95.6087 392.296 94.8261 393.557C94.0575 394.818 92.9255 395.448 91.4302 395.448C89.9489 395.448 88.8169 394.818 88.0343 393.557C87.2517 392.296 86.8604 390.474 86.8604 388.091C86.8604 385.722 87.2517 383.907 88.0343 382.646C88.8169 381.386 89.9489 380.755 91.4302 380.755ZM88.3487 388.091C88.3487 389.782 88.5024 391.105 88.8099 392.061L93.4636 382.854C92.9744 382.203 92.2966 381.878 91.4302 381.878C90.4659 381.878 89.7113 382.39 89.1663 383.415C88.6212 384.427 88.3487 385.985 88.3487 388.091ZM91.4302 394.305C92.4084 394.305 93.1701 393.8 93.7151 392.788C94.2601 391.763 94.5326 390.197 94.5326 388.091C94.5326 386.304 94.3579 384.919 94.0086 383.935L89.3549 393.225C89.858 393.945 90.5498 394.305 91.4302 394.305Z" fill="url(#paint46_linear_122_130)" fill-opacity="0.6"/>
<g opacity="0.6">
<path d="M919.93 -38C921.356 -38 922.436 -37.395 923.17 -36.1851C923.916 -34.9885 924.29 -33.2468 924.29 -30.9599C924.29 -28.673 923.916 -26.9246 923.17 -25.7147C922.436 -24.5048 921.356 -23.8998 919.93 -23.8998C918.517 -23.8998 917.437 -24.5048 916.69 -25.7147C915.943 -26.9246 915.57 -28.673 915.57 -30.9599C915.57 -33.2335 915.943 -34.9752 916.69 -36.1851C917.437 -37.395 918.517 -38 919.93 -38ZM916.99 -30.9599C916.99 -29.3378 917.137 -28.068 917.43 -27.1506L921.87 -35.9857C921.403 -36.6106 920.756 -36.923 919.93 -36.923C919.01 -36.923 918.29 -36.4311 917.77 -35.4472C917.25 -34.4766 916.99 -32.9808 916.99 -30.9599ZM919.93 -24.9967C920.863 -24.9967 921.59 -25.482 922.11 -26.4526C922.63 -27.4365 922.89 -28.9389 922.89 -30.9599C922.89 -32.675 922.723 -34.0046 922.39 -34.9486L917.95 -26.0338C918.43 -25.3424 919.09 -24.9967 919.93 -24.9967Z" fill="url(#paint47_linear_122_130)"/>
<path d="M921.13 -2.36345H924.07V-1.30644H916.45V-2.36345H919.85V-13.5718L916.61 -11.6373L916.05 -12.5347L920.05 -15.0078H921.13V-2.36345Z" fill="url(#paint48_linear_122_130)"/>
<path d="M919.93 7.58561C921.356 7.58561 922.436 8.19057 923.17 9.40048C923.916 10.5971 924.29 12.3389 924.29 14.6257C924.29 16.9126 923.916 18.661 923.17 19.8709C922.436 21.0808 921.356 21.6858 919.93 21.6858C918.517 21.6858 917.437 21.0808 916.69 19.8709C915.943 18.661 915.57 16.9126 915.57 14.6257C915.57 12.3522 915.943 10.6104 916.69 9.40048C917.437 8.19057 918.517 7.58561 919.93 7.58561ZM916.99 14.6257C916.99 16.2478 917.137 17.5176 917.43 18.435L921.87 9.59992C921.403 8.97502 920.756 8.66256 919.93 8.66256C919.01 8.66256 918.29 9.15451 917.77 10.1384C917.25 11.109 916.99 12.6048 916.99 14.6257ZM919.93 20.5889C920.863 20.5889 921.59 20.1036 922.11 19.133C922.63 18.1491 922.89 16.6467 922.89 14.6257C922.89 12.9106 922.723 11.581 922.39 10.637L917.95 19.5518C918.43 20.2432 919.09 20.5889 919.93 20.5889Z" fill="url(#paint49_linear_122_130)"/>
<path d="M921.13 43.2221H924.07V44.2792H916.45V43.2221H919.85V32.0138L916.61 33.9483L916.05 33.0509L920.05 30.5778H921.13V43.2221Z" fill="url(#paint50_linear_122_130)"/>
<path d="M921.13 66.015H924.07V67.072H916.45V66.015H919.85V54.8066L916.61 56.7411L916.05 55.8437L920.05 53.3706H921.13V66.015Z" fill="url(#paint51_linear_122_130)"/>
<path d="M919.93 75.964C921.356 75.964 922.436 76.569 923.17 77.7789C923.916 78.9755 924.29 80.7173 924.29 83.0041C924.29 85.291 923.916 87.0394 923.17 88.2493C922.436 89.4593 921.356 90.0642 919.93 90.0642C918.517 90.0642 917.437 89.4593 916.69 88.2493C915.943 87.0394 915.57 85.291 915.57 83.0041C915.57 80.7306 915.943 78.9888 916.69 77.7789C917.437 76.569 918.517 75.964 919.93 75.964ZM916.99 83.0041C916.99 84.6262 917.137 85.896 917.43 86.8134L921.87 77.9783C921.403 77.3534 920.756 77.041 919.93 77.041C919.01 77.041 918.29 77.5329 917.77 78.5168C917.25 79.4874 916.99 80.9832 916.99 83.0041ZM919.93 88.9673C920.863 88.9673 921.59 88.482 922.11 87.5114C922.63 86.5275 922.89 85.0251 922.89 83.0041C922.89 81.289 922.723 79.9594 922.39 79.0154L917.95 87.9302C918.43 88.6216 919.09 88.9673 919.93 88.9673Z" fill="url(#paint52_linear_122_130)"/>
<path d="M921.13 111.601H924.07V112.658H916.45V111.601H919.85V100.392L916.61 102.327L916.05 101.429L920.05 98.9562H921.13V111.601Z" fill="url(#paint53_linear_122_130)"/>
<path d="M919.93 121.55C921.356 121.55 922.436 122.155 923.17 123.365C923.916 124.561 924.29 126.303 924.29 128.59C924.29 130.877 923.916 132.625 923.17 133.835C922.436 135.045 921.356 135.65 919.93 135.65C918.517 135.65 917.437 135.045 916.69 133.835C915.943 132.625 915.57 130.877 915.57 128.59C915.57 126.316 915.943 124.574 916.69 123.365C917.437 122.155 918.517 121.55 919.93 121.55ZM916.99 128.59C916.99 130.212 917.137 131.482 917.43 132.399L921.87 123.564C921.403 122.939 920.756 122.627 919.93 122.627C919.01 122.627 918.29 123.119 917.77 124.102C917.25 125.073 916.99 126.569 916.99 128.59ZM919.93 134.553C920.863 134.553 921.59 134.068 922.11 133.097C922.63 132.113 922.89 130.611 922.89 128.59C922.89 126.875 922.723 125.545 922.39 124.601L917.95 133.516C918.43 134.207 919.09 134.553 919.93 134.553Z" fill="url(#paint54_linear_122_130)"/>
<path d="M919.93 144.342C921.356 144.342 922.436 144.947 923.17 146.157C923.916 147.354 924.29 149.096 924.29 151.383C924.29 153.669 923.916 155.418 923.17 156.628C922.436 157.838 921.356 158.443 919.93 158.443C918.517 158.443 917.437 157.838 916.69 156.628C915.943 155.418 915.57 153.669 915.57 151.383C915.57 149.109 915.943 147.367 916.69 146.157C917.437 144.947 918.517 144.342 919.93 144.342ZM916.99 151.383C916.99 153.005 917.137 154.274 917.43 155.192L921.87 146.357C921.403 145.732 920.756 145.419 919.93 145.419C919.01 145.419 918.29 145.911 917.77 146.895C917.25 147.866 916.99 149.362 916.99 151.383ZM919.93 157.346C920.863 157.346 921.59 156.86 922.11 155.89C922.63 154.906 922.89 153.404 922.89 151.383C922.89 149.667 922.723 148.338 922.39 147.394L917.95 156.309C918.43 157 919.09 157.346 919.93 157.346Z" fill="url(#paint55_linear_122_130)"/>
<path d="M921.13 179.979H924.07V181.036H916.45V179.979H919.85V168.771L916.61 170.705L916.05 169.808L920.05 167.335H921.13V179.979Z" fill="url(#paint56_linear_122_130)"/>
<path d="M919.93 189.928C921.356 189.928 922.436 190.533 923.17 191.743C923.916 192.94 924.29 194.681 924.29 196.968C924.29 199.255 923.916 201.003 923.17 202.213C922.436 203.423 921.356 204.028 919.93 204.028C918.517 204.028 917.437 203.423 916.69 202.213C915.943 201.003 915.57 199.255 915.57 196.968C915.57 194.695 915.943 192.953 916.69 191.743C917.437 190.533 918.517 189.928 919.93 189.928ZM916.99 196.968C916.99 198.59 917.137 199.86 917.43 200.777L921.87 191.942C921.403 191.317 920.756 191.005 919.93 191.005C919.01 191.005 918.29 191.497 917.77 192.481C917.25 193.451 916.99 194.947 916.99 196.968ZM919.93 202.931C920.863 202.931 921.59 202.446 922.11 201.475C922.63 200.492 922.89 198.989 922.89 196.968C922.89 195.253 922.723 193.923 922.39 192.979L917.95 201.894C918.43 202.586 919.09 202.931 919.93 202.931Z" fill="url(#paint57_linear_122_130)"/>
<path d="M921.13 225.565H924.07V226.622H916.45V225.565H919.85V214.356L916.61 216.291L916.05 215.393L920.05 212.92H921.13V225.565Z" fill="url(#paint58_linear_122_130)"/>
<path d="M921.13 248.357H924.07V249.414H916.45V248.357H919.85V237.149L916.61 239.084L916.05 238.186L920.05 235.713H921.13V248.357Z" fill="url(#paint59_linear_122_130)"/>
<path d="M957.07 7.58561C958.497 7.58561 959.577 8.19057 960.31 9.40048C961.057 10.5971 961.43 12.3389 961.43 14.6257C961.43 16.9126 961.057 18.661 960.31 19.8709C959.577 21.0808 958.497 21.6858 957.07 21.6858C955.657 21.6858 954.577 21.0808 953.83 19.8709C953.084 18.661 952.71 16.9126 952.71 14.6257C952.71 12.3522 953.084 10.6104 953.83 9.40048C954.577 8.19057 955.657 7.58561 957.07 7.58561ZM954.13 14.6257C954.13 16.2478 954.277 17.5176 954.57 18.435L959.01 9.59992C958.543 8.97502 957.897 8.66256 957.07 8.66256C956.15 8.66256 955.43 9.15451 954.91 10.1384C954.39 11.109 954.13 12.6048 954.13 14.6257ZM957.07 20.5889C958.003 20.5889 958.73 20.1036 959.25 19.133C959.77 18.1491 960.03 16.6467 960.03 14.6257C960.03 12.9106 959.863 11.581 959.53 10.637L955.09 19.5518C955.57 20.2432 956.23 20.5889 957.07 20.5889Z" fill="url(#paint60_linear_122_130)"/>
<path d="M958.27 43.2221H961.21V44.2792H953.59V43.2221H956.99V32.0138L953.75 33.9483L953.19 33.0509L957.19 30.5778H958.27V43.2221Z" fill="url(#paint61_linear_122_130)"/>
<path d="M957.07 53.1712C958.497 53.1712 959.577 53.7762 960.31 54.9861C961.057 56.1827 961.43 57.9245 961.43 60.2113C961.43 62.4982 961.057 64.2466 960.31 65.4565C959.577 66.6664 958.497 67.2714 957.07 67.2714C955.657 67.2714 954.577 66.6664 953.83 65.4565C953.084 64.2466 952.71 62.4982 952.71 60.2113C952.71 57.9378 953.084 56.196 953.83 54.9861C954.577 53.7762 955.657 53.1712 957.07 53.1712ZM954.13 60.2113C954.13 61.8334 954.277 63.1032 954.57 64.0206L959.01 55.1855C958.543 54.5606 957.897 54.2482 957.07 54.2482C956.15 54.2482 955.43 54.7401 954.91 55.724C954.39 56.6946 954.13 58.1904 954.13 60.2113ZM957.07 66.1745C958.003 66.1745 958.73 65.6892 959.25 64.7186C959.77 63.7347 960.03 62.2323 960.03 60.2113C960.03 58.4962 959.863 57.1666 959.53 56.2226L955.09 65.1374C955.57 65.8288 956.23 66.1745 957.07 66.1745Z" fill="url(#paint62_linear_122_130)"/>
<path d="M957.07 75.964C958.497 75.964 959.577 76.569 960.31 77.7789C961.057 78.9755 961.43 80.7173 961.43 83.0041C961.43 85.291 961.057 87.0394 960.31 88.2493C959.577 89.4593 958.497 90.0642 957.07 90.0642C955.657 90.0642 954.577 89.4593 953.83 88.2493C953.084 87.0394 952.71 85.291 952.71 83.0041C952.71 80.7306 953.084 78.9888 953.83 77.7789C954.577 76.569 955.657 75.964 957.07 75.964ZM954.13 83.0041C954.13 84.6262 954.277 85.896 954.57 86.8134L959.01 77.9783C958.543 77.3534 957.897 77.041 957.07 77.041C956.15 77.041 955.43 77.5329 954.91 78.5168C954.39 79.4874 954.13 80.9832 954.13 83.0041ZM957.07 88.9673C958.003 88.9673 958.73 88.482 959.25 87.5114C959.77 86.5275 960.03 85.0251 960.03 83.0041C960.03 81.289 959.863 79.9594 959.53 79.0154L955.09 87.9302C955.57 88.6216 956.23 88.9673 957.07 88.9673Z" fill="url(#paint63_linear_122_130)"/>
<path d="M958.27 111.601H961.21V112.658H953.59V111.601H956.99V100.392L953.75 102.327L953.19 101.429L957.19 98.9562H958.27V111.601Z" fill="url(#paint64_linear_122_130)"/>
<path d="M957.07 121.55C958.497 121.55 959.577 122.155 960.31 123.365C961.057 124.561 961.43 126.303 961.43 128.59C961.43 130.877 961.057 132.625 960.31 133.835C959.577 135.045 958.497 135.65 957.07 135.65C955.657 135.65 954.577 135.045 953.83 133.835C953.084 132.625 952.71 130.877 952.71 128.59C952.71 126.316 953.084 124.574 953.83 123.365C954.577 122.155 955.657 121.55 957.07 121.55ZM954.13 128.59C954.13 130.212 954.277 131.482 954.57 132.399L959.01 123.564C958.543 122.939 957.897 122.627 957.07 122.627C956.15 122.627 955.43 123.119 954.91 124.102C954.39 125.073 954.13 126.569 954.13 128.59ZM957.07 134.553C958.003 134.553 958.73 134.068 959.25 133.097C959.77 132.113 960.03 130.611 960.03 128.59C960.03 126.875 959.863 125.545 959.53 124.601L955.09 133.516C955.57 134.207 956.23 134.553 957.07 134.553Z" fill="url(#paint65_linear_122_130)"/>
<path d="M958.27 157.186H961.21V158.243H953.59V157.186H956.99V145.978L953.75 147.912L953.19 147.015L957.19 144.542H958.27V157.186Z" fill="url(#paint66_linear_122_130)"/>
<path d="M957.07 167.135C958.497 167.135 959.577 167.74 960.31 168.95C961.057 170.147 961.43 171.888 961.43 174.175C961.43 176.462 961.057 178.211 960.31 179.421C959.577 180.63 958.497 181.235 957.07 181.235C955.657 181.235 954.577 180.63 953.83 179.421C953.084 178.211 952.71 176.462 952.71 174.175C952.71 171.902 953.084 170.16 953.83 168.95C954.577 167.74 955.657 167.135 957.07 167.135ZM954.13 174.175C954.13 175.797 954.277 177.067 954.57 177.985L959.01 169.15C958.543 168.525 957.897 168.212 957.07 168.212C956.15 168.212 955.43 168.704 954.91 169.688C954.39 170.659 954.13 172.154 954.13 174.175ZM957.07 180.139C958.003 180.139 958.73 179.653 959.25 178.683C959.77 177.699 960.03 176.196 960.03 174.175C960.03 172.46 959.863 171.131 959.53 170.187L955.09 179.101C955.57 179.793 956.23 180.139 957.07 180.139Z" fill="url(#paint67_linear_122_130)"/>
<path d="M957.07 189.928C958.497 189.928 959.577 190.533 960.31 191.743C961.057 192.94 961.43 194.681 961.43 196.968C961.43 199.255 961.057 201.003 960.31 202.213C959.577 203.423 958.497 204.028 957.07 204.028C955.657 204.028 954.577 203.423 953.83 202.213C953.084 201.003 952.71 199.255 952.71 196.968C952.71 194.695 953.084 192.953 953.83 191.743C954.577 190.533 955.657 189.928 957.07 189.928ZM954.13 196.968C954.13 198.59 954.277 199.86 954.57 200.777L959.01 191.942C958.543 191.317 957.897 191.005 957.07 191.005C956.15 191.005 955.43 191.497 954.91 192.481C954.39 193.451 954.13 194.947 954.13 196.968ZM957.07 202.931C958.003 202.931 958.73 202.446 959.25 201.475C959.77 200.492 960.03 198.989 960.03 196.968C960.03 195.253 959.863 193.923 959.53 192.979L955.09 201.894C955.57 202.586 956.23 202.931 957.07 202.931Z" fill="url(#paint68_linear_122_130)"/>
<path d="M958.27 225.565H961.21V226.622H953.59V225.565H956.99V214.356L953.75 216.291L953.19 215.393L957.19 212.92H958.27V225.565Z" fill="url(#paint69_linear_122_130)"/>
<path d="M957.07 235.514C958.497 235.514 959.577 236.119 960.31 237.329C961.057 238.525 961.43 240.267 961.43 242.554C961.43 244.841 961.057 246.589 960.31 247.799C959.577 249.009 958.497 249.614 957.07 249.614C955.657 249.614 954.577 249.009 953.83 247.799C953.084 246.589 952.71 244.841 952.71 242.554C952.71 240.28 953.084 238.538 953.83 237.329C954.577 236.119 955.657 235.514 957.07 235.514ZM954.13 242.554C954.13 244.176 954.277 245.446 954.57 246.363L959.01 237.528C958.543 236.903 957.897 236.591 957.07 236.591C956.15 236.591 955.43 237.083 954.91 238.066C954.39 239.037 954.13 240.533 954.13 242.554ZM957.07 248.517C958.003 248.517 958.73 248.032 959.25 247.061C959.77 246.077 960.03 244.575 960.03 242.554C960.03 240.839 959.863 239.509 959.53 238.565L955.09 247.48C955.57 248.171 956.23 248.517 957.07 248.517Z" fill="url(#paint70_linear_122_130)"/>
<path d="M958.27 271.15H961.21V272.207H953.59V271.15H956.99V259.942L953.75 261.876L953.19 260.979L957.19 258.506H958.27V271.15Z" fill="url(#paint71_linear_122_130)"/>
<path d="M958.27 293.943H961.21V295H953.59V293.943H956.99V282.735L953.75 284.669L953.19 283.772L957.19 281.299H958.27V293.943Z" fill="url(#paint72_linear_122_130)"/>
<path d="M901.36 30.3784C902.786 30.3784 903.866 30.9834 904.599 32.1933C905.346 33.3899 905.719 35.1317 905.719 37.4185C905.719 39.7054 905.346 41.4538 904.599 42.6637C903.866 43.8736 902.786 44.4786 901.36 44.4786C899.946 44.4786 898.867 43.8736 898.12 42.6637C897.373 41.4538 897 39.7054 897 37.4185C897 35.145 897.373 33.4032 898.12 32.1933C898.867 30.9834 899.946 30.3784 901.36 30.3784ZM898.42 37.4185C898.42 39.0406 898.567 40.3104 898.86 41.2278L903.3 32.3927C902.833 31.7678 902.186 31.4554 901.36 31.4554C900.44 31.4554 899.72 31.9473 899.2 32.9312C898.68 33.9018 898.42 35.3976 898.42 37.4185ZM901.36 43.3817C902.293 43.3817 903.02 42.8964 903.54 41.9258C904.06 40.9419 904.319 39.4395 904.319 37.4185C904.319 35.7034 904.153 34.3738 903.82 33.4298L899.38 42.3446C899.86 43.036 900.52 43.3817 901.36 43.3817Z" fill="url(#paint73_linear_122_130)"/>
<path d="M901.36 53.1712C902.786 53.1712 903.866 53.7762 904.599 54.9861C905.346 56.1827 905.719 57.9245 905.719 60.2113C905.719 62.4982 905.346 64.2466 904.599 65.4565C903.866 66.6664 902.786 67.2714 901.36 67.2714C899.946 67.2714 898.867 66.6664 898.12 65.4565C897.373 64.2466 897 62.4982 897 60.2113C897 57.9378 897.373 56.196 898.12 54.9861C898.867 53.7762 899.946 53.1712 901.36 53.1712ZM898.42 60.2113C898.42 61.8334 898.567 63.1032 898.86 64.0206L903.3 55.1855C902.833 54.5606 902.186 54.2482 901.36 54.2482C900.44 54.2482 899.72 54.7401 899.2 55.724C898.68 56.6946 898.42 58.1904 898.42 60.2113ZM901.36 66.1745C902.293 66.1745 903.02 65.6892 903.54 64.7186C904.06 63.7347 904.319 62.2323 904.319 60.2113C904.319 58.4962 904.153 57.1666 903.82 56.2226L899.38 65.1374C899.86 65.8288 900.52 66.1745 901.36 66.1745Z" fill="url(#paint74_linear_122_130)"/>
<path d="M902.56 88.8078H905.499V89.8648H897.88V88.8078H901.28V77.5994L898.04 79.5339L897.48 78.6365L901.48 76.1635H902.56V88.8078Z" fill="url(#paint75_linear_122_130)"/>
<path d="M901.36 98.7568C902.786 98.7568 903.866 99.3618 904.599 100.572C905.346 101.768 905.719 103.51 905.719 105.797C905.719 108.084 905.346 109.832 904.599 111.042C903.866 112.252 902.786 112.857 901.36 112.857C899.946 112.857 898.867 112.252 898.12 111.042C897.373 109.832 897 108.084 897 105.797C897 103.523 897.373 101.782 898.12 100.572C898.867 99.3618 899.946 98.7568 901.36 98.7568ZM898.42 105.797C898.42 107.419 898.567 108.689 898.86 109.606L903.3 100.771C902.833 100.146 902.186 99.8338 901.36 99.8338C900.44 99.8338 899.72 100.326 899.2 101.31C898.68 102.28 898.42 103.776 898.42 105.797ZM901.36 111.76C902.293 111.76 903.02 111.275 903.54 110.304C904.06 109.32 904.319 107.818 904.319 105.797C904.319 104.082 904.153 102.752 903.82 101.808L899.38 110.723C899.86 111.414 900.52 111.76 901.36 111.76Z" fill="url(#paint76_linear_122_130)"/>
<path d="M902.56 134.393H905.499V135.45H897.88V134.393H901.28V123.185L898.04 125.12L897.48 124.222L901.48 121.749H902.56V134.393Z" fill="url(#paint77_linear_122_130)"/>
<path d="M902.56 157.186H905.499V158.243H897.88V157.186H901.28V145.978L898.04 147.912L897.48 147.015L901.48 144.542H902.56V157.186Z" fill="url(#paint78_linear_122_130)"/>
<path d="M939.7 -2.36345H942.64V-1.30644H935.02V-2.36345H938.42V-13.5718L935.18 -11.6373L934.62 -12.5347L938.62 -15.0078H939.7V-2.36345Z" fill="url(#paint79_linear_122_130)"/>
<path d="M938.5 7.58561C939.927 7.58561 941.006 8.19057 941.74 9.40048C942.486 10.5971 942.86 12.3389 942.86 14.6257C942.86 16.9126 942.486 18.661 941.74 19.8709C941.006 21.0808 939.927 21.6858 938.5 21.6858C937.087 21.6858 936.007 21.0808 935.26 19.8709C934.514 18.661 934.14 16.9126 934.14 14.6257C934.14 12.3522 934.514 10.6104 935.26 9.40048C936.007 8.19057 937.087 7.58561 938.5 7.58561ZM935.56 14.6257C935.56 16.2478 935.707 17.5176 936 18.435L940.44 9.59992C939.973 8.97502 939.327 8.66256 938.5 8.66256C937.58 8.66256 936.86 9.15451 936.34 10.1384C935.82 11.109 935.56 12.6048 935.56 14.6257ZM938.5 20.5889C939.433 20.5889 940.16 20.1036 940.68 19.133C941.2 18.1491 941.46 16.6467 941.46 14.6257C941.46 12.9106 941.293 11.581 940.96 10.637L936.52 19.5518C937 20.2432 937.66 20.5889 938.5 20.5889Z" fill="url(#paint80_linear_122_130)"/>
<path d="M939.7 43.2221H942.64V44.2792H935.02V43.2221H938.42V32.0138L935.18 33.9483L934.62 33.0509L938.62 30.5778H939.7V43.2221Z" fill="url(#paint81_linear_122_130)"/>
<path d="M939.7 66.015H942.64V67.072H935.02V66.015H938.42V54.8066L935.18 56.7411L934.62 55.8437L938.62 53.3706H939.7V66.015Z" fill="url(#paint82_linear_122_130)"/>
<path d="M938.5 75.964C939.927 75.964 941.006 76.569 941.74 77.7789C942.486 78.9755 942.86 80.7173 942.86 83.0041C942.86 85.291 942.486 87.0394 941.74 88.2493C941.006 89.4593 939.927 90.0642 938.5 90.0642C937.087 90.0642 936.007 89.4593 935.26 88.2493C934.514 87.0394 934.14 85.291 934.14 83.0041C934.14 80.7306 934.514 78.9888 935.26 77.7789C936.007 76.569 937.087 75.964 938.5 75.964ZM935.56 83.0041C935.56 84.6262 935.707 85.896 936 86.8134L940.44 77.9783C939.973 77.3534 939.327 77.041 938.5 77.041C937.58 77.041 936.86 77.5329 936.34 78.5168C935.82 79.4874 935.56 80.9832 935.56 83.0041ZM938.5 88.9673C939.433 88.9673 940.16 88.482 940.68 87.5114C941.2 86.5275 941.46 85.0251 941.46 83.0041C941.46 81.289 941.293 79.9594 940.96 79.0154L936.52 87.9302C937 88.6216 937.66 88.9673 938.5 88.9673Z" fill="url(#paint83_linear_122_130)"/>
<path d="M939.7 111.601H942.64V112.658H935.02V111.601H938.42V100.392L935.18 102.327L934.62 101.429L938.62 98.9562H939.7V111.601Z" fill="url(#paint84_linear_122_130)"/>
<path d="M939.7 134.393H942.64V135.45H935.02V134.393H938.42V123.185L935.18 125.12L934.62 124.222L938.62 121.749H939.7V134.393Z" fill="url(#paint85_linear_122_130)"/>
<path d="M938.5 144.342C939.927 144.342 941.006 144.947 941.74 146.157C942.486 147.354 942.86 149.096 942.86 151.383C942.86 153.669 942.486 155.418 941.74 156.628C941.006 157.838 939.927 158.443 938.5 158.443C937.087 158.443 936.007 157.838 935.26 156.628C934.514 155.418 934.14 153.669 934.14 151.383C934.14 149.109 934.514 147.367 935.26 146.157C936.007 144.947 937.087 144.342 938.5 144.342ZM935.56 151.383C935.56 153.005 935.707 154.274 936 155.192L940.44 146.357C939.973 145.732 939.327 145.419 938.5 145.419C937.58 145.419 936.86 145.911 936.34 146.895C935.82 147.866 935.56 149.362 935.56 151.383ZM938.5 157.346C939.433 157.346 940.16 156.86 940.68 155.89C941.2 154.906 941.46 153.404 941.46 151.383C941.46 149.667 941.293 148.338 940.96 147.394L936.52 156.309C937 157 937.66 157.346 938.5 157.346Z" fill="url(#paint86_linear_122_130)"/>
<path d="M939.7 179.979H942.64V181.036H935.02V179.979H938.42V168.771L935.18 170.705L934.62 169.808L938.62 167.335H939.7V179.979Z" fill="url(#paint87_linear_122_130)"/>
<path d="M938.5 189.928C939.927 189.928 941.006 190.533 941.74 191.743C942.486 192.94 942.86 194.681 942.86 196.968C942.86 199.255 942.486 201.003 941.74 202.213C941.006 203.423 939.927 204.028 938.5 204.028C937.087 204.028 936.007 203.423 935.26 202.213C934.514 201.003 934.14 199.255 934.14 196.968C934.14 194.695 934.514 192.953 935.26 191.743C936.007 190.533 937.087 189.928 938.5 189.928ZM935.56 196.968C935.56 198.59 935.707 199.86 936 200.777L940.44 191.942C939.973 191.317 939.327 191.005 938.5 191.005C937.58 191.005 936.86 191.497 936.34 192.481C935.82 193.451 935.56 194.947 935.56 196.968ZM938.5 202.931C939.433 202.931 940.16 202.446 940.68 201.475C941.2 200.492 941.46 198.989 941.46 196.968C941.46 195.253 941.293 193.923 940.96 192.979L936.52 201.894C937 202.586 937.66 202.931 938.5 202.931Z" fill="url(#paint88_linear_122_130)"/>
<path d="M975.64 -15.2072C977.067 -15.2072 978.147 -14.6022 978.88 -13.3923C979.627 -12.1957 980 -10.4539 980 -8.16707C980 -5.88019 979.627 -4.13179 978.88 -2.92188C978.147 -1.71196 977.067 -1.107 975.64 -1.107C974.227 -1.107 973.147 -1.71196 972.401 -2.92188C971.654 -4.13179 971.281 -5.88019 971.281 -8.16707C971.281 -10.4407 971.654 -12.1824 972.401 -13.3923C973.147 -14.6022 974.227 -15.2072 975.64 -15.2072ZM972.7 -8.16707C972.7 -6.54498 972.847 -5.27523 973.14 -4.35782L977.58 -13.1929C977.114 -13.8178 976.467 -14.1302 975.64 -14.1302C974.72 -14.1302 974 -13.6383 973.48 -12.6544C972.96 -11.6838 972.7 -10.188 972.7 -8.16707ZM975.64 -2.2039C976.574 -2.2039 977.3 -2.6892 977.82 -3.65979C978.34 -4.64368 978.6 -6.14611 978.6 -8.16707C978.6 -9.88223 978.433 -11.2118 978.1 -12.1558L973.66 -3.24098C974.14 -2.5496 974.8 -2.2039 975.64 -2.2039Z" fill="url(#paint89_linear_122_130)"/>
<path d="M976.84 20.4293H979.78V21.4864H972.161V20.4293H975.56V9.22099L972.321 11.1555L971.761 10.2581L975.76 7.78504H976.84V20.4293Z" fill="url(#paint90_linear_122_130)"/>
<path d="M976.84 43.2221H979.78V44.2792H972.161V43.2221H975.56V32.0138L972.321 33.9483L971.761 33.0509L975.76 30.5778H976.84V43.2221Z" fill="url(#paint91_linear_122_130)"/>
<path d="M975.64 53.1712C977.067 53.1712 978.147 53.7762 978.88 54.9861C979.627 56.1827 980 57.9245 980 60.2113C980 62.4982 979.627 64.2466 978.88 65.4565C978.147 66.6664 977.067 67.2714 975.64 67.2714C974.227 67.2714 973.147 66.6664 972.401 65.4565C971.654 64.2466 971.281 62.4982 971.281 60.2113C971.281 57.9378 971.654 56.196 972.401 54.9861C973.147 53.7762 974.227 53.1712 975.64 53.1712ZM972.7 60.2113C972.7 61.8334 972.847 63.1032 973.14 64.0206L977.58 55.1855C977.114 54.5606 976.467 54.2482 975.64 54.2482C974.72 54.2482 974 54.7401 973.48 55.724C972.96 56.6946 972.7 58.1904 972.7 60.2113ZM975.64 66.1745C976.574 66.1745 977.3 65.6892 977.82 64.7186C978.34 63.7347 978.6 62.2323 978.6 60.2113C978.6 58.4962 978.433 57.1666 978.1 56.2226L973.66 65.1374C974.14 65.8288 974.8 66.1745 975.64 66.1745Z" fill="url(#paint92_linear_122_130)"/>
<path d="M975.64 75.964C977.067 75.964 978.147 76.569 978.88 77.7789C979.627 78.9755 980 80.7173 980 83.0041C980 85.291 979.627 87.0394 978.88 88.2493C978.147 89.4593 977.067 90.0642 975.64 90.0642C974.227 90.0642 973.147 89.4593 972.401 88.2493C971.654 87.0394 971.281 85.291 971.281 83.0041C971.281 80.7306 971.654 78.9888 972.401 77.7789C973.147 76.569 974.227 75.964 975.64 75.964ZM972.7 83.0041C972.7 84.6262 972.847 85.896 973.14 86.8134L977.58 77.9783C977.114 77.3534 976.467 77.041 975.64 77.041C974.72 77.041 974 77.5329 973.48 78.5168C972.96 79.4874 972.7 80.9832 972.7 83.0041ZM975.64 88.9673C976.574 88.9673 977.3 88.482 977.82 87.5114C978.34 86.5275 978.6 85.0251 978.6 83.0041C978.6 81.289 978.433 79.9594 978.1 79.0154L973.66 87.9302C974.14 88.6216 974.8 88.9673 975.64 88.9673Z" fill="url(#paint93_linear_122_130)"/>
</g>
</g>
<defs>
<filter id="filter0_f_122_130" x="-558.19" y="-724.19" width="2141.38" height="1500.38" filterUnits="userSpaceOnUse" color-interpolation-filters="sRGB">
<feFlood flood-opacity="0" result="BackgroundImageFix"/>
<feBlend mode="normal" in="SourceGraphic" in2="BackgroundImageFix" result="shape"/>
<feGaussianBlur stdDeviation="200.095" result="effect1_foregroundBlur_122_130"/>
</filter>
<linearGradient id="paint0_linear_122_130" x1="52.5" y1="262" x2="52.5" y2="573.381" gradientUnits="userSpaceOnUse">
<stop stop-color="#F7DD43"/>
<stop offset="1" stop-color="#F7DD43" stop-opacity="0"/>
</linearGradient>
<linearGradient id="paint1_linear_122_130" x1="52.5" y1="262" x2="52.5" y2="573.381" gradientUnits="userSpaceOnUse">
<stop stop-color="#F7DD43"/>
<stop offset="1" stop-color="#F7DD43" stop-opacity="0"/>
</linearGradient>
<linearGradient id="paint2_linear_122_130" x1="52.5" y1="262" x2="52.5" y2="573.381" gradientUnits="userSpaceOnUse">
<stop stop-color="#F7DD43"/>
<stop offset="1" stop-color="#F7DD43" stop-opacity="0"/>
</linearGradient>
<linearGradient id="paint3_linear_122_130" x1="52.5" y1="262" x2="52.5" y2="573.381" gradientUnits="userSpaceOnUse">
<stop stop-color="#F7DD43"/>
<stop offset="1" stop-color="#F7DD43" stop-opacity="0"/>
</linearGradient>
<linearGradient id="paint4_linear_122_130" x1="52.5" y1="262" x2="52.5" y2="573.381" gradientUnits="userSpaceOnUse">
<stop stop-color="#F7DD43"/>
<stop offset="1" stop-color="#F7DD43" stop-opacity="0"/>
</linearGradient>
<linearGradient id="paint5_linear_122_130" x1="52.5" y1="262" x2="52.5" y2="573.381" gradientUnits="userSpaceOnUse">
<stop stop-color="#F7DD43"/>
<stop offset="1" stop-color="#F7DD43" stop-opacity="0"/>
</linearGradient>
<linearGradient id="paint6_linear_122_130" x1="52.5" y1="262" x2="52.5" y2="573.381" gradientUnits="userSpaceOnUse">
<stop stop-color="#F7DD43"/>
<stop offset="1" stop-color="#F7DD43" stop-opacity="0"/>
</linearGradient>
<linearGradient id="paint7_linear_122_130" x1="52.5" y1="262" x2="52.5" y2="573.381" gradientUnits="userSpaceOnUse">
<stop stop-color="#F7DD43"/>
<stop offset="1" stop-color="#F7DD43" stop-opacity="0"/>
</linearGradient>
<linearGradient id="paint8_linear_122_130" x1="52.5" y1="262" x2="52.5" y2="573.381" gradientUnits="userSpaceOnUse">
<stop stop-color="#F7DD43"/>
<stop offset="1" stop-color="#F7DD43" stop-opacity="0"/>
</linearGradient>
<linearGradient id="paint9_linear_122_130" x1="52.5" y1="262" x2="52.5" y2="573.381" gradientUnits="userSpaceOnUse">
<stop stop-color="#F7DD43"/>
<stop offset="1" stop-color="#F7DD43" stop-opacity="0"/>
</linearGradient>
<linearGradient id="paint10_linear_122_130" x1="52.5" y1="262" x2="52.5" y2="573.381" gradientUnits="userSpaceOnUse">
<stop stop-color="#F7DD43"/>
<stop offset="1" stop-color="#F7DD43" stop-opacity="0"/>
</linearGradient>
<linearGradient id="paint11_linear_122_130" x1="52.5" y1="262" x2="52.5" y2="573.381" gradientUnits="userSpaceOnUse">
<stop stop-color="#F7DD43"/>
<stop offset="1" stop-color="#F7DD43" stop-opacity="0"/>
</linearGradient>
<linearGradient id="paint12_linear_122_130" x1="52.5" y1="262" x2="52.5" y2="573.381" gradientUnits="userSpaceOnUse">
<stop stop-color="#F7DD43"/>
<stop offset="1" stop-color="#F7DD43" stop-opacity="0"/>
</linearGradient>
<linearGradient id="paint13_linear_122_130" x1="52.5" y1="262" x2="52.5" y2="573.381" gradientUnits="userSpaceOnUse">
<stop stop-color="#F7DD43"/>
<stop offset="1" stop-color="#F7DD43" stop-opacity="0"/>
</linearGradient>
<linearGradient id="paint14_linear_122_130" x1="52.5" y1="262" x2="52.5" y2="573.381" gradientUnits="userSpaceOnUse">
<stop stop-color="#F7DD43"/>
<stop offset="1" stop-color="#F7DD43" stop-opacity="0"/>
</linearGradient>
<linearGradient id="paint15_linear_122_130" x1="52.5" y1="262" x2="52.5" y2="573.381" gradientUnits="userSpaceOnUse">
<stop stop-color="#F7DD43"/>
<stop offset="1" stop-color="#F7DD43" stop-opacity="0"/>
</linearGradient>
<linearGradient id="paint16_linear_122_130" x1="52.5" y1="262" x2="52.5" y2="573.381" gradientUnits="userSpaceOnUse">
<stop stop-color="#F7DD43"/>
<stop offset="1" stop-color="#F7DD43" stop-opacity="0"/>
</linearGradient>
<linearGradient id="paint17_linear_122_130" x1="52.5" y1="262" x2="52.5" y2="573.381" gradientUnits="userSpaceOnUse">
<stop stop-color="#F7DD43"/>
<stop offset="1" stop-color="#F7DD43" stop-opacity="0"/>
</linearGradient>
<linearGradient id="paint18_linear_122_130" x1="52.5" y1="262" x2="52.5" y2="573.381" gradientUnits="userSpaceOnUse">
<stop stop-color="#F7DD43"/>
<stop offset="1" stop-color="#F7DD43" stop-opacity="0"/>
</linearGradient>
<linearGradient id="paint19_linear_122_130" x1="52.5" y1="262" x2="52.5" y2="573.381" gradientUnits="userSpaceOnUse">
<stop stop-color="#F7DD43"/>
<stop offset="1" stop-color="#F7DD43" stop-opacity="0"/>
</linearGradient>
<linearGradient id="paint20_linear_122_130" x1="52.5" y1="262" x2="52.5" y2="573.381" gradientUnits="userSpaceOnUse">
<stop stop-color="#F7DD43"/>
<stop offset="1" stop-color="#F7DD43" stop-opacity="0"/>
</linearGradient>
<linearGradient id="paint21_linear_122_130" x1="52.5" y1="262" x2="52.5" y2="573.381" gradientUnits="userSpaceOnUse">
<stop stop-color="#F7DD43"/>
<stop offset="1" stop-color="#F7DD43" stop-opacity="0"/>
</linearGradient>
<linearGradient id="paint22_linear_122_130" x1="52.5" y1="262" x2="52.5" y2="573.381" gradientUnits="userSpaceOnUse">
<stop stop-color="#F7DD43"/>
<stop offset="1" stop-color="#F7DD43" stop-opacity="0"/>
</linearGradient>
<linearGradient id="paint23_linear_122_130" x1="52.5" y1="262" x2="52.5" y2="573.381" gradientUnits="userSpaceOnUse">
<stop stop-color="#F7DD43"/>
<stop offset="1" stop-color="#F7DD43" stop-opacity="0"/>
</linearGradient>
<linearGradient id="paint24_linear_122_130" x1="52.5" y1="262" x2="52.5" y2="573.381" gradientUnits="userSpaceOnUse">
<stop stop-color="#F7DD43"/>
<stop offset="1" stop-color="#F7DD43" stop-opacity="0"/>
</linearGradient>
<linearGradient id="paint25_linear_122_130" x1="52.5" y1="262" x2="52.5" y2="573.381" gradientUnits="userSpaceOnUse">
<stop stop-color="#F7DD43"/>
<stop offset="1" stop-color="#F7DD43" stop-opacity="0"/>
</linearGradient>
<linearGradient id="paint26_linear_122_130" x1="52.5" y1="262" x2="52.5" y2="573.381" gradientUnits="userSpaceOnUse">
<stop stop-color="#F7DD43"/>
<stop offset="1" stop-color="#F7DD43" stop-opacity="0"/>
</linearGradient>
<linearGradient id="paint27_linear_122_130" x1="52.5" y1="262" x2="52.5" y2="573.381" gradientUnits="userSpaceOnUse">
<stop stop-color="#F7DD43"/>
<stop offset="1" stop-color="#F7DD43" stop-opacity="0"/>
</linearGradient>
<linearGradient id="paint28_linear_122_130" x1="52.5" y1="262" x2="52.5" y2="573.381" gradientUnits="userSpaceOnUse">
<stop stop-color="#F7DD43"/>
<stop offset="1" stop-color="#F7DD43" stop-opacity="0"/>
</linearGradient>
<linearGradient id="paint29_linear_122_130" x1="52.5" y1="262" x2="52.5" y2="573.381" gradientUnits="userSpaceOnUse">
<stop stop-color="#F7DD43"/>
<stop offset="1" stop-color="#F7DD43" stop-opacity="0"/>
</linearGradient>
<linearGradient id="paint30_linear_122_130" x1="52.5" y1="262" x2="52.5" y2="573.381" gradientUnits="userSpaceOnUse">
<stop stop-color="#F7DD43"/>
<stop offset="1" stop-color="#F7DD43" stop-opacity="0"/>
</linearGradient>
<linearGradient id="paint31_linear_122_130" x1="52.5" y1="262" x2="52.5" y2="573.381" gradientUnits="userSpaceOnUse">
<stop stop-color="#F7DD43"/>
<stop offset="1" stop-color="#F7DD43" stop-opacity="0"/>
</linearGradient>
<linearGradient id="paint32_linear_122_130" x1="52.5" y1="262" x2="52.5" y2="573.381" gradientUnits="userSpaceOnUse">
<stop stop-color="#F7DD43"/>
<stop offset="1" stop-color="#F7DD43" stop-opacity="0"/>
</linearGradient>
<linearGradient id="paint33_linear_122_130" x1="52.5" y1="262" x2="52.5" y2="573.381" gradientUnits="userSpaceOnUse">
<stop stop-color="#F7DD43"/>
<stop offset="1" stop-color="#F7DD43" stop-opacity="0"/>
</linearGradient>
<linearGradient id="paint34_linear_122_130" x1="52.5" y1="262" x2="52.5" y2="573.381" gradientUnits="userSpaceOnUse">
<stop stop-color="#F7DD43"/>
<stop offset="1" stop-color="#F7DD43" stop-opacity="0"/>
</linearGradient>
<linearGradient id="paint35_linear_122_130" x1="52.5" y1="262" x2="52.5" y2="573.381" gradientUnits="userSpaceOnUse">
<stop stop-color="#F7DD43"/>
<stop offset="1" stop-color="#F7DD43" stop-opacity="0"/>
</linearGradient>
<linearGradient id="paint36_linear_122_130" x1="52.5" y1="262" x2="52.5" y2="573.381" gradientUnits="userSpaceOnUse">
<stop stop-color="#F7DD43"/>
<stop offset="1" stop-color="#F7DD43" stop-opacity="0"/>
</linearGradient>
<linearGradient id="paint37_linear_122_130" x1="52.5" y1="262" x2="52.5" y2="573.381" gradientUnits="userSpaceOnUse">
<stop stop-color="#F7DD43"/>
<stop offset="1" stop-color="#F7DD43" stop-opacity="0"/>
</linearGradient>
<linearGradient id="paint38_linear_122_130" x1="52.5" y1="262" x2="52.5" y2="573.381" gradientUnits="userSpaceOnUse">
<stop stop-color="#F7DD43"/>
<stop offset="1" stop-color="#F7DD43" stop-opacity="0"/>
</linearGradient>
<linearGradient id="paint39_linear_122_130" x1="52.5" y1="262" x2="52.5" y2="573.381" gradientUnits="userSpaceOnUse">
<stop stop-color="#F7DD43"/>
<stop offset="1" stop-color="#F7DD43" stop-opacity="0"/>
</linearGradient>
<linearGradient id="paint40_linear_122_130" x1="52.5" y1="262" x2="52.5" y2="573.381" gradientUnits="userSpaceOnUse">
<stop stop-color="#F7DD43"/>
<stop offset="1" stop-color="#F7DD43" stop-opacity="0"/>
</linearGradient>
<linearGradient id="paint41_linear_122_130" x1="52.5" y1="262" x2="52.5" y2="573.381" gradientUnits="userSpaceOnUse">
<stop stop-color="#F7DD43"/>
<stop offset="1" stop-color="#F7DD43" stop-opacity="0"/>
</linearGradient>
<linearGradient id="paint42_linear_122_130" x1="52.5" y1="262" x2="52.5" y2="573.381" gradientUnits="userSpaceOnUse">
<stop stop-color="#F7DD43"/>
<stop offset="1" stop-color="#F7DD43" stop-opacity="0"/>
</linearGradient>
<linearGradient id="paint43_linear_122_130" x1="52.5" y1="262" x2="52.5" y2="573.381" gradientUnits="userSpaceOnUse">
<stop stop-color="#F7DD43"/>
<stop offset="1" stop-color="#F7DD43" stop-opacity="0"/>
</linearGradient>
<linearGradient id="paint44_linear_122_130" x1="52.5" y1="262" x2="52.5" y2="573.381" gradientUnits="userSpaceOnUse">
<stop stop-color="#F7DD43"/>
<stop offset="1" stop-color="#F7DD43" stop-opacity="0"/>
</linearGradient>
<linearGradient id="paint45_linear_122_130" x1="52.5" y1="262" x2="52.5" y2="573.381" gradientUnits="userSpaceOnUse">
<stop stop-color="#F7DD43"/>
<stop offset="1" stop-color="#F7DD43" stop-opacity="0"/>
</linearGradient>
<linearGradient id="paint46_linear_122_130" x1="52.5" y1="262" x2="52.5" y2="573.381" gradientUnits="userSpaceOnUse">
<stop stop-color="#F7DD43"/>
<stop offset="1" stop-color="#F7DD43" stop-opacity="0"/>
</linearGradient>
<linearGradient id="paint47_linear_122_130" x1="938.5" y1="-38" x2="938.5" y2="260.818" gradientUnits="userSpaceOnUse">
<stop stop-color="#F7DD43"/>
<stop offset="1" stop-color="#F7DD43" stop-opacity="0"/>
</linearGradient>
<linearGradient id="paint48_linear_122_130" x1="938.5" y1="-38" x2="938.5" y2="260.818" gradientUnits="userSpaceOnUse">
<stop stop-color="#F7DD43"/>
<stop offset="1" stop-color="#F7DD43" stop-opacity="0"/>
</linearGradient>
<linearGradient id="paint49_linear_122_130" x1="938.5" y1="-38" x2="938.5" y2="260.818" gradientUnits="userSpaceOnUse">
<stop stop-color="#F7DD43"/>
<stop offset="1" stop-color="#F7DD43" stop-opacity="0"/>
</linearGradient>
<linearGradient id="paint50_linear_122_130" x1="938.5" y1="-38" x2="938.5" y2="260.818" gradientUnits="userSpaceOnUse">
<stop stop-color="#F7DD43"/>
<stop offset="1" stop-color="#F7DD43" stop-opacity="0"/>
</linearGradient>
<linearGradient id="paint51_linear_122_130" x1="938.5" y1="-38" x2="938.5" y2="260.818" gradientUnits="userSpaceOnUse">
<stop stop-color="#F7DD43"/>
<stop offset="1" stop-color="#F7DD43" stop-opacity="0"/>
</linearGradient>
<linearGradient id="paint52_linear_122_130" x1="938.5" y1="-38" x2="938.5" y2="260.818" gradientUnits="userSpaceOnUse">
<stop stop-color="#F7DD43"/>
<stop offset="1" stop-color="#F7DD43" stop-opacity="0"/>
</linearGradient>
<linearGradient id="paint53_linear_122_130" x1="938.5" y1="-38" x2="938.5" y2="260.818" gradientUnits="userSpaceOnUse">
<stop stop-color="#F7DD43"/>
<stop offset="1" stop-color="#F7DD43" stop-opacity="0"/>
</linearGradient>
<linearGradient id="paint54_linear_122_130" x1="938.5" y1="-38" x2="938.5" y2="260.818" gradientUnits="userSpaceOnUse">
<stop stop-color="#F7DD43"/>
<stop offset="1" stop-color="#F7DD43" stop-opacity="0"/>
</linearGradient>
<linearGradient id="paint55_linear_122_130" x1="938.5" y1="-38" x2="938.5" y2="260.818" gradientUnits="userSpaceOnUse">
<stop stop-color="#F7DD43"/>
<stop offset="1" stop-color="#F7DD43" stop-opacity="0"/>
</linearGradient>
<linearGradient id="paint56_linear_122_130" x1="938.5" y1="-38" x2="938.5" y2="260.818" gradientUnits="userSpaceOnUse">
<stop stop-color="#F7DD43"/>
<stop offset="1" stop-color="#F7DD43" stop-opacity="0"/>
</linearGradient>
<linearGradient id="paint57_linear_122_130" x1="938.5" y1="-38" x2="938.5" y2="260.818" gradientUnits="userSpaceOnUse">
<stop stop-color="#F7DD43"/>
<stop offset="1" stop-color="#F7DD43" stop-opacity="0"/>
</linearGradient>
<linearGradient id="paint58_linear_122_130" x1="938.5" y1="-38" x2="938.5" y2="260.818" gradientUnits="userSpaceOnUse">
<stop stop-color="#F7DD43"/>
<stop offset="1" stop-color="#F7DD43" stop-opacity="0"/>
</linearGradient>
<linearGradient id="paint59_linear_122_130" x1="938.5" y1="-38" x2="938.5" y2="260.818" gradientUnits="userSpaceOnUse">
<stop stop-color="#F7DD43"/>
<stop offset="1" stop-color="#F7DD43" stop-opacity="0"/>
</linearGradient>
<linearGradient id="paint60_linear_122_130" x1="938.5" y1="-38" x2="938.5" y2="260.818" gradientUnits="userSpaceOnUse">
<stop stop-color="#F7DD43"/>
<stop offset="1" stop-color="#F7DD43" stop-opacity="0"/>
</linearGradient>
<linearGradient id="paint61_linear_122_130" x1="938.5" y1="-38" x2="938.5" y2="260.818" gradientUnits="userSpaceOnUse">
<stop stop-color="#F7DD43"/>
<stop offset="1" stop-color="#F7DD43" stop-opacity="0"/>
</linearGradient>
<linearGradient id="paint62_linear_122_130" x1="938.5" y1="-38" x2="938.5" y2="260.818" gradientUnits="userSpaceOnUse">
<stop stop-color="#F7DD43"/>
<stop offset="1" stop-color="#F7DD43" stop-opacity="0"/>
</linearGradient>
<linearGradient id="paint63_linear_122_130" x1="938.5" y1="-38" x2="938.5" y2="260.818" gradientUnits="userSpaceOnUse">
<stop stop-color="#F7DD43"/>
<stop offset="1" stop-color="#F7DD43" stop-opacity="0"/>
</linearGradient>
<linearGradient id="paint64_linear_122_130" x1="938.5" y1="-38" x2="938.5" y2="260.818" gradientUnits="userSpaceOnUse">
<stop stop-color="#F7DD43"/>
<stop offset="1" stop-color="#F7DD43" stop-opacity="0"/>
</linearGradient>
<linearGradient id="paint65_linear_122_130" x1="938.5" y1="-38" x2="938.5" y2="260.818" gradientUnits="userSpaceOnUse">
<stop stop-color="#F7DD43"/>
<stop offset="1" stop-color="#F7DD43" stop-opacity="0"/>
</linearGradient>
<linearGradient id="paint66_linear_122_130" x1="938.5" y1="-38" x2="938.5" y2="260.818" gradientUnits="userSpaceOnUse">
<stop stop-color="#F7DD43"/>
<stop offset="1" stop-color="#F7DD43" stop-opacity="0"/>
</linearGradient>
<linearGradient id="paint67_linear_122_130" x1="938.5" y1="-38" x2="938.5" y2="260.818" gradientUnits="userSpaceOnUse">
<stop stop-color="#F7DD43"/>
<stop offset="1" stop-color="#F7DD43" stop-opacity="0"/>
</linearGradient>
<linearGradient id="paint68_linear_122_130" x1="938.5" y1="-38" x2="938.5" y2="260.818" gradientUnits="userSpaceOnUse">
<stop stop-color="#F7DD43"/>
<stop offset="1" stop-color="#F7DD43" stop-opacity="0"/>
</linearGradient>
<linearGradient id="paint69_linear_122_130" x1="938.5" y1="-38" x2="938.5" y2="260.818" gradientUnits="userSpaceOnUse">
<stop stop-color="#F7DD43"/>
<stop offset="1" stop-color="#F7DD43" stop-opacity="0"/>
</linearGradient>
<linearGradient id="paint70_linear_122_130" x1="938.5" y1="-38" x2="938.5" y2="260.818" gradientUnits="userSpaceOnUse">
<stop stop-color="#F7DD43"/>
<stop offset="1" stop-color="#F7DD43" stop-opacity="0"/>
</linearGradient>
<linearGradient id="paint71_linear_122_130" x1="938.5" y1="-38" x2="938.5" y2="260.818" gradientUnits="userSpaceOnUse">
<stop stop-color="#F7DD43"/>
<stop offset="1" stop-color="#F7DD43" stop-opacity="0"/>
</linearGradient>
<linearGradient id="paint72_linear_122_130" x1="938.5" y1="-38" x2="938.5" y2="260.818" gradientUnits="userSpaceOnUse">
<stop stop-color="#F7DD43"/>
<stop offset="1" stop-color="#F7DD43" stop-opacity="0"/>
</linearGradient>
<linearGradient id="paint73_linear_122_130" x1="938.5" y1="-38" x2="938.5" y2="260.818" gradientUnits="userSpaceOnUse">
<stop stop-color="#F7DD43"/>
<stop offset="1" stop-color="#F7DD43" stop-opacity="0"/>
</linearGradient>
<linearGradient id="paint74_linear_122_130" x1="938.5" y1="-38" x2="938.5" y2="260.818" gradientUnits="userSpaceOnUse">
<stop stop-color="#F7DD43"/>
<stop offset="1" stop-color="#F7DD43" stop-opacity="0"/>
</linearGradient>
<linearGradient id="paint75_linear_122_130" x1="938.5" y1="-38" x2="938.5" y2="260.818" gradientUnits="userSpaceOnUse">
<stop stop-color="#F7DD43"/>
<stop offset="1" stop-color="#F7DD43" stop-opacity="0"/>
</linearGradient>
<linearGradient id="paint76_linear_122_130" x1="938.5" y1="-38" x2="938.5" y2="260.818" gradientUnits="userSpaceOnUse">
<stop stop-color="#F7DD43"/>
<stop offset="1" stop-color="#F7DD43" stop-opacity="0"/>
</linearGradient>
<linearGradient id="paint77_linear_122_130" x1="938.5" y1="-38" x2="938.5" y2="260.818" gradientUnits="userSpaceOnUse">
<stop stop-color="#F7DD43"/>
<stop offset="1" stop-color="#F7DD43" stop-opacity="0"/>
</linearGradient>
<linearGradient id="paint78_linear_122_130" x1="938.5" y1="-38" x2="938.5" y2="260.818" gradientUnits="userSpaceOnUse">
<stop stop-color="#F7DD43"/>
<stop offset="1" stop-color="#F7DD43" stop-opacity="0"/>
</linearGradient>
<linearGradient id="paint79_linear_122_130" x1="938.5" y1="-38" x2="938.5" y2="260.818" gradientUnits="userSpaceOnUse">
<stop stop-color="#F7DD43"/>
<stop offset="1" stop-color="#F7DD43" stop-opacity="0"/>
</linearGradient>
<linearGradient id="paint80_linear_122_130" x1="938.5" y1="-38" x2="938.5" y2="260.818" gradientUnits="userSpaceOnUse">
<stop stop-color="#F7DD43"/>
<stop offset="1" stop-color="#F7DD43" stop-opacity="0"/>
</linearGradient>
<linearGradient id="paint81_linear_122_130" x1="938.5" y1="-38" x2="938.5" y2="260.818" gradientUnits="userSpaceOnUse">
<stop stop-color="#F7DD43"/>
<stop offset="1" stop-color="#F7DD43" stop-opacity="0"/>
</linearGradient>
<linearGradient id="paint82_linear_122_130" x1="938.5" y1="-38" x2="938.5" y2="260.818" gradientUnits="userSpaceOnUse">
<stop stop-color="#F7DD43"/>
<stop offset="1" stop-color="#F7DD43" stop-opacity="0"/>
</linearGradient>
<linearGradient id="paint83_linear_122_130" x1="938.5" y1="-38" x2="938.5" y2="260.818" gradientUnits="userSpaceOnUse">
<stop stop-color="#F7DD43"/>
<stop offset="1" stop-color="#F7DD43" stop-opacity="0"/>
</linearGradient>
<linearGradient id="paint84_linear_122_130" x1="938.5" y1="-38" x2="938.5" y2="260.818" gradientUnits="userSpaceOnUse">
<stop stop-color="#F7DD43"/>
<stop offset="1" stop-color="#F7DD43" stop-opacity="0"/>
</linearGradient>
<linearGradient id="paint85_linear_122_130" x1="938.5" y1="-38" x2="938.5" y2="260.818" gradientUnits="userSpaceOnUse">
<stop stop-color="#F7DD43"/>
<stop offset="1" stop-color="#F7DD43" stop-opacity="0"/>
</linearGradient>
<linearGradient id="paint86_linear_122_130" x1="938.5" y1="-38" x2="938.5" y2="260.818" gradientUnits="userSpaceOnUse">
<stop stop-color="#F7DD43"/>
<stop offset="1" stop-color="#F7DD43" stop-opacity="0"/>
</linearGradient>
<linearGradient id="paint87_linear_122_130" x1="938.5" y1="-38" x2="938.5" y2="260.818" gradientUnits="userSpaceOnUse">
<stop stop-color="#F7DD43"/>
<stop offset="1" stop-color="#F7DD43" stop-opacity="0"/>
</linearGradient>
<linearGradient id="paint88_linear_122_130" x1="938.5" y1="-38" x2="938.5" y2="260.818" gradientUnits="userSpaceOnUse">
<stop stop-color="#F7DD43"/>
<stop offset="1" stop-color="#F7DD43" stop-opacity="0"/>
</linearGradient>
<linearGradient id="paint89_linear_122_130" x1="938.5" y1="-38" x2="938.5" y2="260.818" gradientUnits="userSpaceOnUse">
<stop stop-color="#F7DD43"/>
<stop offset="1" stop-color="#F7DD43" stop-opacity="0"/>
</linearGradient>
<linearGradient id="paint90_linear_122_130" x1="938.5" y1="-38" x2="938.5" y2="260.818" gradientUnits="userSpaceOnUse">
<stop stop-color="#F7DD43"/>
<stop offset="1" stop-color="#F7DD43" stop-opacity="0"/>
</linearGradient>
<linearGradient id="paint91_linear_122_130" x1="938.5" y1="-38" x2="938.5" y2="260.818" gradientUnits="userSpaceOnUse">
<stop stop-color="#F7DD43"/>
<stop offset="1" stop-color="#F7DD43" stop-opacity="0"/>
</linearGradient>
<linearGradient id="paint92_linear_122_130" x1="938.5" y1="-38" x2="938.5" y2="260.818" gradientUnits="userSpaceOnUse">
<stop stop-color="#F7DD43"/>
<stop offset="1" stop-color="#F7DD43" stop-opacity="0"/>
</linearGradient>
<linearGradient id="paint93_linear_122_130" x1="938.5" y1="-38" x2="938.5" y2="260.818" gradientUnits="userSpaceOnUse">
<stop stop-color="#F7DD43"/>
<stop offset="1" stop-color="#F7DD43" stop-opacity="0"/>
</linearGradient>
<clipPath id="clip0_122_130">
<rect width="1024" height="753" fill="white"/>
</clipPath>
</defs>
</svg>
